<?xml version="1.0" encoding="UTF-8" standalone="no"?>
<!-- Created with Inkscape (http://www.inkscape.org/) -->

<svg
   width="210mm"
   height="297mm"
   viewBox="0 0 210 297"
   version="1.1"
   id="svg5"
   xml:space="preserve"
   inkscape:version="1.2.2 (732a01da63, 2022-12-09)"
   sodipodi:docname="logo_editable.svg"
   xmlns:inkscape="http://www.inkscape.org/namespaces/inkscape"
   xmlns:sodipodi="http://sodipodi.sourceforge.net/DTD/sodipodi-0.dtd"
   xmlns="http://www.w3.org/2000/svg"
   xmlns:svg="http://www.w3.org/2000/svg"><sodipodi:namedview
     id="namedview7"
     pagecolor="#505050"
     bordercolor="#eeeeee"
     borderopacity="1"
     inkscape:showpageshadow="0"
     inkscape:pageopacity="0"
     inkscape:pagecheckerboard="0"
     inkscape:deskcolor="#505050"
     inkscape:document-units="mm"
     showgrid="false"
     inkscape:zoom="1.0419012"
     inkscape:cx="153.56542"
     inkscape:cy="588.82742"
     inkscape:window-width="1920"
     inkscape:window-height="1002"
     inkscape:window-x="-8"
     inkscape:window-y="-8"
     inkscape:window-maximized="1"
     inkscape:current-layer="layer1" /><defs
     id="defs2" /><g
     inkscape:label="Layer 1"
     inkscape:groupmode="layer"
     id="layer1"><g
       id="g316"
       inkscape:export-filename="..\favicon.png"
       inkscape:export-xdpi="96"
       inkscape:export-ydpi="96"><path
         style="fill:#5584ff;fill-opacity:1;stroke-width:0.264583"
         d="m 93.543569,209.42541 c -13.204238,-9.62413 -24.973717,-21.1018 -31.246165,-30.47146 -5.761675,-8.60667 -7.86473,-16.1219 -6.44074,-23.01587 1.777215,-8.60405 8.741533,-15.51085 17.411391,-17.26759 3.301784,-0.66903 7.781987,-0.40346 11.030594,0.65385 4.517205,1.4702 9.031287,4.85445 11.564879,8.67032 0.520002,0.78318 1.017897,1.42304 1.106435,1.42192 0.08854,-0.001 0.434692,-0.48131 0.769231,-1.06709 0.859769,-1.50546 3.852866,-4.60561 5.735066,-5.9402 3.72868,-2.64385 7.13327,-3.80607 11.7961,-4.02684 6.25878,-0.29633 11.73769,1.7212 16.19731,5.96442 6.16877,5.86945 8.38794,14.41963 5.89998,22.73187 -1.71583,5.73254 -5.92077,12.68826 -11.71675,19.38155 -2.59828,3.00055 -9.35406,9.77256 -12.77726,12.80797 -4.50156,3.99162 -13.877474,11.40001 -15.582436,12.31248 -0.357553,0.19135 -1.165598,-0.27337 -3.747635,-2.15533 z m 5.407094,-2.6533 c 15.221497,-11.17932 28.086867,-24.61335 33.300787,-34.77271 3.33548,-6.49924 4.0254,-11.38644 2.4033,-17.02453 -3.22181,-11.19839 -15.80881,-16.87848 -26.41131,-11.91854 -5.02151,2.34911 -8.04475,5.7244 -10.354561,11.56031 l -0.985906,2.49097 -0.824952,-2.19085 c -0.453724,-1.20496 -1.155007,-2.79666 -1.558409,-3.53709 -2.588255,-4.7507 -7.141938,-8.23353 -12.625571,-9.65652 -4.39416,-1.14028 -10.028201,-0.27713 -14.196047,2.17487 -2.043025,1.20194 -5.530948,4.73528 -6.755596,6.84356 -2.795598,4.81274 -3.314036,10.59943 -1.469673,16.40412 3.396636,10.69011 15.960413,24.96668 33.954049,38.58292 1.74625,1.32143 3.2795,2.4082 3.407222,2.41505 0.12772,0.007 1.08022,-0.61036 2.116667,-1.37156 z"
         id="path2614" /><path
         style="fill:#3871c1;fill-opacity:1;stroke-width:0.264583"
         d="m 71.606155,193.44781 c 0,-0.21413 0.307417,-1.07733 0.683149,-1.91823 2.446428,-5.47515 5.080818,-13.04961 6.072392,-17.45949 0.86705,-3.85606 0.968099,-7.43039 0.249391,-8.82122 -0.588772,-1.13939 -0.948259,-1.40778 -2.794085,-2.08611 -0.812731,-0.29867 -2.20204,-1.01121 -3.087352,-1.58341 -1.878399,-1.21407 -5.621411,-4.68606 -5.621411,-5.21438 0,-0.49436 0.257026,-0.45515 1.190625,0.18167 3.271329,2.2314 7.660912,3.65806 11.90625,3.86965 4.874212,0.24293 8.98385,-0.70816 14.132521,-3.27067 l 2.755437,-1.37139 0.6958,0.74486 c 0.90691,0.97085 4.488948,2.7621 6.939148,3.47003 2.43413,0.70328 7.81217,0.97777 10.4304,0.53234 2.89407,-0.49236 5.84706,-1.48312 8.70294,-2.91993 2.81471,-1.4161 3.04271,-1.495 3.04271,-1.05298 0,1.3944 -5.36895,5.54293 -8.68998,6.71466 -1.01283,0.35735 -1.19024,0.35859 -1.53802,0.0108 -0.54198,-0.54198 -1.74661,-0.49275 -2.35956,0.0964 -0.49638,0.47714 -0.52411,0.47378 -1.09199,-0.13229 -1.21139,-1.29286 -2.9892,-0.5217 -2.9892,1.29663 0,1.03563 1.12711,2.75243 2.45142,3.73398 0.70768,0.52452 0.7575,0.527 1.52136,0.0758 l 0.78972,-0.4665 v 2.39795 c 0,4.18604 1.23477,10.90304 3.33852,18.16115 0.67104,2.31515 1.27984,4.41772 1.35289,4.67238 0.0851,0.29665 -0.0122,0.46302 -0.27075,0.46302 -0.43405,0 -3.42654,-6.8178 -6.00868,-13.6896 -0.77867,-2.07225 -1.46915,-3.71433 -1.53442,-3.64907 -0.0653,0.0653 -0.51194,1.07943 -0.99262,2.2537 -1.38303,3.37868 -3.65227,7.49919 -6.37691,11.57924 -3.34494,5.00893 -3.90426,5.08463 -1.83879,0.24888 5.22465,-12.23211 7.33056,-21.47386 5.65003,-24.79501 -0.53512,-1.05754 -0.79676,-1.25886 -2.58789,-1.99123 -2.51049,-1.02652 -4.8495,-2.60874 -7.058648,-4.77482 l -1.72442,-1.69081 -1.957882,1.82845 c -1.260734,1.17739 -2.743578,2.23077 -4.164433,2.95832 l -2.206548,1.12987 -0.736029,-0.57896 c -0.98271,-0.773 -2.358125,-0.76164 -3.145742,0.026 l -0.604941,0.60495 -0.675476,-0.73724 c -1.408509,-1.53727 -3.911425,-0.625 -3.911425,1.42566 0,1.13962 0.946107,2.78924 2.426993,4.23166 1.42507,1.38806 1.671638,1.47556 2.50775,0.88993 0.547815,-0.3837 0.556837,-0.35871 0.740291,2.05052 0.445294,5.84786 1.803382,12.12563 4.806175,22.21656 0.08704,0.29248 -0.0045,0.46302 -0.24856,0.46302 -0.497533,0 -3.417514,-6.65704 -6.266939,-14.2875 -0.407559,-1.0914 -0.881682,-2.34156 -1.0536,-2.77812 l -0.312582,-0.79375 -0.623109,1.64543 c -1.537071,4.05891 -4.5738,9.5555 -7.898033,14.29571 -1.489048,2.12332 -2.015887,2.59204 -2.015887,1.79348 z M 90.9926,189.71133 c 0.08537,-0.27741 0.833189,-2.16729 1.661824,-4.19971 3.145648,-7.71546 3.889168,-13.41575 1.87511,-14.37575 -0.311348,-0.1484 -1.146138,-0.53631 -1.855086,-0.86202 -1.215803,-0.55857 -4.816409,-3.6247 -4.558919,-3.88219 0.06568,-0.0657 0.873085,0.30205 1.794227,0.81718 2.264404,1.26633 4.364789,1.78497 7.228696,1.78497 2.84247,0 4.796588,-0.47324 7.739058,-1.87423 1.50879,-0.71838 2.18281,-0.92809 2.18281,-0.67914 0,0.54501 -2.4206,2.60766 -4.07938,3.47614 -1.25166,0.65533 -1.54768,0.7203 -1.99865,0.43866 -0.71323,-0.44541 -1.458708,-0.4166 -1.864258,0.0721 -0.29515,0.35562 -0.37793,0.34018 -0.70886,-0.1323 -0.20608,-0.29422 -0.64178,-0.53494 -0.96823,-0.53494 -1.863896,0 -1.5872,2.64569 0.44378,4.24326 0.66265,0.52124 0.77886,0.53842 1.18485,0.17517 0.41912,-0.37502 0.45484,-0.26464 0.51858,1.60246 0.0974,2.85372 1.194418,8.06056 2.870438,13.62442 0.0767,0.25467 0.0305,0.46303 -0.1028,0.46303 -0.27149,0 -0.34028,-0.15517 -2.932638,-6.61459 l -1.85825,-4.63021 -0.32325,0.92605 c -1.08824,3.11755 -7.07932,12.85974 -6.249052,10.16168 z m 5.587082,-21.79808 c -1.029028,-0.41577 -1.754029,-1.62402 -1.590731,-2.65102 0.466223,-2.93215 4.927621,-2.76172 4.927621,0.18823 0,1.18207 -0.36856,1.83171 -1.31762,2.32249 -0.86196,0.44573 -1.20445,0.46953 -2.01927,0.1403 z m 13.500908,-8.83371 c -2.82455,-1.27934 -3.14554,-5.41569 -0.54499,-7.02291 1.88434,-1.16459 4.65935,-0.49713 5.62819,1.35371 0.63489,1.21287 0.60319,3.20208 -0.0653,4.09744 -1.23031,1.64786 -3.3701,2.31811 -5.01791,1.57176 z m -30.627417,-0.95993 c -1.1783,-1.03456 -1.598178,-2.09554 -1.427736,-3.6077 0.561139,-4.9784 7.868219,-4.50892 7.868219,0.50553 0,2.464 -1.542103,3.8947 -4.197967,3.8947 -1.111004,0 -1.494054,-0.13537 -2.242516,-0.79253 z"
         id="path3153" /><path
         style="fill:#bf1b2c;fill-opacity:1;stroke-width:0.264583"
         d="m 97.548078,173.20393 c -1.03393,-1.06461 -1.43814,-2.30309 -0.94543,-2.89678 0.45725,-0.55094 1.51726,-0.47692 1.89787,0.13253 0.27745,0.44426 0.38203,0.46664 0.72985,0.15617 1.294122,-1.15514 2.552842,-0.15136 1.752052,1.39719 -0.40697,0.787 -1.856582,2.16141 -2.279662,2.16141 -0.12735,0 -0.64696,-0.42773 -1.15468,-0.95052 z M 82.2261,167.73452 c -1.78771,-1.74536 -2.35449,-2.8081 -2.249535,-4.21798 0.143904,-1.93311 2.005989,-2.65028 3.361581,-1.29468 0.26915,0.26915 0.556866,0.65307 0.639371,0.85316 0.118518,0.28743 0.211535,0.2666 0.443098,-0.0992 0.877171,-1.38576 3.014983,-1.43232 3.671552,-0.0799 0.717108,1.47705 -0.546548,3.56228 -3.311637,5.46471 l -1.122304,0.77217 z m 29.78209,-0.54765 c -1.77652,-1.9273 -2.01569,-3.65071 -0.61097,-4.40249 0.65718,-0.35171 1.32705,-0.10706 2.06231,0.7532 0.3267,0.38225 0.59459,0.54042 0.59531,0.35149 0.002,-0.56688 1.5871,-1.10114 2.30128,-0.77574 0.48914,0.22287 0.61045,0.48802 0.61045,1.33427 0,0.92373 -0.17737,1.2335 -1.41494,2.47107 -0.77847,0.77847 -1.65593,1.41494 -1.95068,1.41494 -0.29465,0 -1.01139,-0.51603 -1.59276,-1.14674 z"
         id="path3149" /><path
         style="fill:#70d9fa;fill-opacity:1;stroke-width:0.264583"
         d="m 94.328394,143.0147 c -8.92911,-1.78863 -14.36117,-11.23331 -11.26239,-19.58182 0.3781,-1.01865 0.61763,-1.55443 0.5323,-1.19063 -0.0853,0.3638 -0.22106,2.09021 -0.30162,3.83646 -0.17144,3.71636 0.12212,5.4803 1.30654,7.85052 1.00427,2.00973 3.97344,5.08526 6.021,6.23667 1.80545,1.01526 4.41723,1.70798 6.04345,1.60288 1.17261,-0.0758 1.23259,-0.11791 1.23259,-0.86572 0,-0.77644 -0.0258,-0.79038 -2.1057,-1.13731 -2.86385,-0.47768 -4.95104,-1.53263 -6.95495,-3.51526 -2.79002,-2.76041 -4.02259,-6.27681 -3.59167,-10.24666 l 0.19291,-1.7772 0.20234,1.5327 c 0.48014,3.63704 3.12762,7.13156 6.6816,8.81933 5.85455,2.78032 12.862496,0.34679 15.715446,-5.45724 1.71168,-3.48223 1.6841,-5.62175 -0.13118,-10.17713 -1.52549,-3.82818 -9.438386,-19.306207 -10.392786,-20.328827 -0.35071,-0.37577 -6.25528,9.914577 -8.75051,15.250187 -1.19892,2.56367 -1.54011,3.08552 -1.978,3.02535 -0.89463,-0.12292 -0.75074,-1.09567 0.54519,-3.68586 3.13685,-6.26961 9.86617,-17.840367 10.17921,-17.502687 0.55435,0.59799 5.480596,9.803247 8.680776,16.221047 3.63339,7.28656 5.28353,11.07305 6.00173,13.77179 1.3915,5.22875 -1.16907,11.54973 -6.01053,14.8375 -2.12028,1.43986 -3.5343,2.03441 -5.92737,2.49228 -2.378866,0.45516 -3.615186,0.45299 -5.928376,-0.0104 z m 8.136346,-1.78859 c 1.3024,-1.39531 0.69938,-3.44554 -1.11344,-3.78563 -2.279406,-0.42761 -3.638606,2.20899 -1.989096,3.8585 0.742476,0.74248 2.377316,0.70408 3.102536,-0.0729 z"
         id="path3659" /></g></g></svg>
